# xmcd
#
# Track frame offsets:
#	150
#	22167
#	41530
#	58038
#	72132
#	87855
#	103432
#	121351
#	138591
#	156976
#	171465
#	189543
#	210806
#	228556
#	246147
#	270725
#	289441
#	318896
#
# Disc length: 4259 seconds
#
# Revision: 0
# Processed by: cddbd v1.5.1PL2 Copyright (c) Steve Scherf et al.
# Submitted via: audiograbber 1.83.01
#
DISCID=1110a112
DTITLE=Various Artist - TT-249
DYEAR=1900
DGENRE=Country
TTITLE0=Kenny Chesney - All I Want for Christmas Is a Real Good Tan
TTITLE1=Toby Keith - American Soldier
TTITLE2=Kenny Chesney - Christmas in Dixie
TTITLE3=Jimmy Buffet - Christmas Island
TTITLE4=Shania Twain with Alison Krauss - Coat of Many Colors
TTITLE5=Jerry Burkhart - Dodging Memories
TTITLE6=Toby Keith - Don't Leave, I Think I Love You
TTITLE7=Rodney Crowell - Earthbound
TTITLE8=Darryl Worley - I Will Hold My Ground
TTITLE9=Martina McBride - In My Daughter's Eyes
TTITLE10=Toby Keith - Nights I Can't Remember
TTITLE11=Rodney Crowell - Riding Out The Storm
TTITLE12=Norah Jones and Dolly Parton - The Grass Is Blue
TTITLE13=Leann Rimes - This Love
TTITLE14=Sara Evans - Tonight
TTITLE15=Toby Keith - Weed With Willie
TTITLE16=Big and Rich - Wild West Show
TTITLE17=Data Track - Data Track
EXTD=
EXTT0=
EXTT1=
EXTT2=
EXTT3=
EXTT4=
EXTT5=
EXTT6=
EXTT7=
EXTT8=
EXTT9=
EXTT10=
EXTT11=
EXTT12=
EXTT13=
EXTT14=
EXTT15=
EXTT16=
EXTT17=
PLAYORDER=
